<svg version="1.1" id="Layer_1" xmlns="http://www.w3.org/2000/svg" xmlns:xlink="http://www.w3.org/1999/xlink" x="0px" y="0px"
	 width="100%" viewBox="0 0 1898 1808" enable-background="new 0 0 1898 1808" xml:space="preserve">
<path fill="#000000" opacity="0.000000" stroke="none" 
	d="
M1.000000,646.000000 
	C1.000000,430.666656 1.000000,215.833328 1.000000,1.000000 
	C633.666687,1.000000 1266.333374,1.000000 1899.000000,1.000000 
	C1899.000000,603.666687 1899.000000,1206.333374 1899.000000,1809.000000 
	C1266.333374,1809.000000 633.666687,1809.000000 1.000000,1809.000000 
	C1.000000,1421.500000 1.000000,1034.000000 1.000000,646.000000 
M577.476624,1674.104004 
	C577.373291,1674.395752 577.269958,1674.687500 577.024902,1675.722656 
	C577.351685,1678.797241 577.481323,1681.908203 578.042664,1684.939331 
	C579.608276,1693.392578 583.915100,1700.508057 589.980225,1706.358765 
	C598.761292,1714.829468 610.097229,1716.514526 621.656494,1716.968384 
	C633.745239,1717.442993 645.843384,1717.681519 657.938232,1717.994629 
	C671.531555,1718.346436 685.126099,1718.652344 698.719421,1719.004272 
	C710.814270,1719.317383 722.907837,1719.676392 735.002441,1719.996094 
	C748.095642,1720.342285 761.189453,1720.661621 774.282776,1721.001343 
	C786.877014,1721.328003 799.470947,1721.669312 812.065063,1721.998291 
	C824.992371,1722.335938 837.919861,1722.664795 850.847168,1723.000244 
	C863.607971,1723.331421 876.368103,1723.686035 889.129456,1723.993896 
	C903.888977,1724.349976 918.650391,1724.630371 933.409241,1725.012085 
	C943.838562,1725.281860 954.263611,1725.712769 964.692810,1725.986938 
	C979.118469,1726.366211 993.546936,1726.638550 1007.972839,1727.008667 
	C1019.235229,1727.297729 1030.494751,1727.693481 1041.756958,1727.991333 
	C1055.515991,1728.355103 1069.277100,1728.649292 1083.036377,1729.005005 
	C1094.964600,1729.313477 1106.891235,1729.692261 1118.819580,1729.992065 
	C1133.245728,1730.354492 1147.671997,1730.746460 1162.100586,1730.971924 
	C1171.761841,1731.122925 1181.433350,1730.789185 1191.089600,1731.056763 
	C1209.117798,1731.556274 1227.134766,1732.492920 1245.164062,1732.916992 
	C1251.899170,1733.075317 1256.357544,1728.880493 1257.890015,1722.201782 
	C1259.185303,1716.555786 1256.315552,1710.229126 1250.424927,1707.923950 
	C1231.713379,1700.601807 1212.863770,1693.631958 1194.059937,1686.545898 
	C1169.942383,1677.457397 1145.836304,1668.338013 1121.690186,1659.326050 
	C1101.188965,1651.674438 1080.621948,1644.198730 1060.113037,1636.567871 
	C1033.681396,1626.733276 1007.281433,1616.813354 980.862305,1606.945190 
	C959.905640,1599.117310 938.940186,1591.313110 917.979492,1583.495972 
	C891.555908,1573.641357 865.125366,1563.805420 838.712769,1553.921387 
	C819.885986,1546.876099 801.014893,1539.941650 782.289307,1532.635376 
	C761.299805,1524.445679 740.178955,1519.577393 717.296753,1523.781372 
	C696.861877,1527.536011 678.973328,1535.946289 664.524109,1550.383301 
	C654.383850,1560.514893 645.870544,1572.337158 637.103821,1583.767334 
	C621.028809,1604.726074 605.308105,1625.956543 589.429626,1647.066162 
	C583.710938,1654.668823 577.546936,1662.070679 578.919678,1672.608521 
	C578.981079,1673.079468 578.315430,1673.645020 577.476624,1674.104004 
M1316.650391,730.937134 
	C1315.712646,730.282104 1314.815430,729.557739 1313.831177,728.982544 
	C1301.618652,721.846375 1289.343994,714.815247 1277.182251,707.593933 
	C1254.676758,694.230896 1232.260010,680.718384 1209.759644,667.346741 
	C1191.175659,656.302490 1172.498779,645.414368 1153.910034,634.378052 
	C1135.743774,623.592590 1117.670776,612.650146 1099.495361,601.880249 
	C1078.373291,589.364380 1057.146240,577.025513 1036.034668,564.492065 
	C1011.850220,550.134216 987.751831,535.631592 963.598694,521.220886 
	C946.431152,510.978088 929.241577,500.772156 912.049927,490.569916 
	C894.159302,479.952881 876.241394,469.381958 858.359436,458.750336 
	C840.890747,448.364410 823.396362,438.019836 806.020264,427.480682 
	C794.245178,420.338623 782.127991,415.747559 767.963989,418.938324 
	C749.182617,423.169220 733.597778,440.770813 733.867188,461.242065 
	C734.589783,516.158386 734.701660,571.083008 734.991211,626.004639 
	C735.360718,696.089722 735.668457,766.175171 735.999451,836.260437 
	C736.335083,907.345520 736.784546,978.430359 736.965271,1049.515869 
	C737.129578,1114.170288 736.905029,1178.825684 737.097229,1243.480103 
	C737.127869,1253.786743 739.421875,1263.534424 745.642639,1272.482056 
	C759.371887,1292.229858 787.127441,1296.398926 805.913879,1284.671753 
	C813.083069,1280.196533 820.551514,1276.198730 827.905273,1272.021484 
	C840.630554,1264.793457 853.410095,1257.660156 866.098389,1250.367920 
	C882.449402,1240.970703 898.709534,1231.415283 915.053284,1222.005249 
	C927.737122,1214.702637 940.519592,1207.571533 953.203735,1200.269531 
	C971.803772,1189.561646 990.329956,1178.725342 1008.935913,1168.027710 
	C1021.623047,1160.733276 1034.427856,1153.643311 1047.116577,1146.351440 
	C1063.467651,1136.954834 1079.733154,1127.409546 1096.077026,1118.000244 
	C1108.761230,1110.697754 1121.537354,1103.554688 1134.221924,1096.253052 
	C1152.822266,1085.545898 1171.354126,1074.719360 1189.960327,1064.022583 
	C1202.647949,1056.728516 1215.446167,1049.626587 1228.135132,1042.334839 
	C1244.485718,1032.938965 1260.755981,1023.403687 1277.099365,1013.995483 
	C1289.784058,1006.693420 1302.553833,999.539124 1315.238770,992.237671 
	C1333.839111,981.531311 1352.380981,970.723328 1370.979736,960.013916 
	C1385.353027,951.737610 1399.782959,943.559631 1414.173950,935.314148 
	C1431.240234,925.535889 1448.183838,915.537537 1465.385132,906.003418 
	C1478.327515,898.829834 1489.563232,890.338867 1493.414429,875.106506 
	C1496.955566,861.100891 1495.242676,848.093018 1486.658691,835.970703 
	C1480.712280,827.573303 1472.144043,822.961975 1463.743286,817.985352 
	C1442.622314,805.473267 1421.369263,793.183777 1400.265259,780.643433 
	C1372.590454,764.198730 1345.007812,747.598816 1316.650391,730.937134 
M167.658127,997.942688 
	C176.918640,1004.276428 186.244156,1010.517517 195.427612,1016.961121 
	C223.817245,1036.880737 252.139252,1056.896729 280.513824,1076.837891 
	C300.353546,1090.780884 320.217377,1104.689941 340.104431,1118.565430 
	C369.736755,1139.240356 399.404816,1159.863892 429.046783,1180.525024 
	C455.484039,1198.952393 481.925354,1217.374023 508.327576,1235.851440 
	C521.002563,1244.722046 533.559631,1253.761108 546.229736,1262.638794 
	C556.110657,1269.562134 566.228516,1274.782104 579.194031,1274.242310 
	C598.325195,1273.445801 616.092346,1256.359985 615.996948,1237.313721 
	C615.671692,1172.395752 615.322632,1107.477661 615.002869,1042.559692 
	C614.656738,972.309509 614.329346,902.059265 614.001099,831.809021 
	C613.662781,759.392517 613.263489,686.976318 613.026184,614.559509 
	C612.883606,571.068909 613.023010,527.577515 612.956970,484.086609 
	C612.951538,480.498596 612.513306,476.885834 611.983398,473.328186 
	C608.894043,452.585846 585.764282,438.274200 564.904602,444.532440 
	C554.512573,447.650208 547.128052,455.247620 538.954529,461.624054 
	C526.699097,471.184875 514.719055,481.097748 502.559143,490.782166 
	C490.161469,500.655853 477.684448,510.429810 465.248932,520.255920 
	C454.352112,528.866211 443.442810,537.460938 432.578766,546.112366 
	C420.547516,555.693359 408.547394,565.313599 396.559875,574.949280 
	C385.841644,583.564636 375.209839,592.288147 364.447998,600.848511 
	C350.639435,611.832214 336.732513,622.692322 322.880035,633.620911 
	C310.437866,643.436951 297.988586,653.244263 285.585541,663.109497 
	C273.548950,672.683289 261.552795,682.308167 249.565659,691.943848 
	C238.847488,700.559570 228.215851,709.283508 217.455032,717.845337 
	C205.311844,727.507080 193.027054,736.990723 180.877502,746.644531 
	C168.706360,756.315430 156.648819,766.129089 144.499603,775.827637 
	C131.854568,785.922119 119.160835,795.955444 106.485977,806.012512 
	C95.985100,814.344727 85.290833,822.447205 75.045204,831.082214 
	C68.348625,836.726074 61.545467,842.539368 56.136532,849.346741 
	C47.791512,859.849182 45.202103,872.433228 45.932838,885.857727 
	C46.830650,902.351562 53.162895,916.568237 66.132973,926.254883 
	C89.719856,943.870605 114.278786,960.183105 138.392639,977.095703 
	C147.997360,983.832153 157.497391,990.717834 167.658127,997.942688 
M1198.650024,1197.059082 
	C1184.037720,1205.583618 1169.464600,1214.176514 1154.803101,1222.615479 
	C1136.341919,1233.241333 1117.767334,1243.670288 1099.317261,1254.315430 
	C1079.320190,1265.853027 1059.452759,1277.615601 1039.450928,1289.145386 
	C1016.203857,1302.545898 992.827454,1315.722046 969.588928,1329.137329 
	C942.120544,1344.994019 914.706116,1360.944824 887.340820,1376.978760 
	C878.966064,1381.885620 869.758972,1385.674683 864.096985,1394.360718 
	C853.327209,1410.882446 854.583008,1433.448853 869.866943,1446.166138 
	C875.510376,1450.861938 882.428162,1454.187012 889.100220,1457.451294 
	C901.948669,1463.737427 915.007751,1469.597290 928.030518,1475.521729 
	C952.438477,1486.625732 976.888916,1497.636597 1001.309204,1508.713623 
	C1013.003967,1514.018433 1024.651123,1519.428589 1036.353271,1524.716675 
	C1063.598755,1537.028320 1090.885010,1549.249878 1118.116089,1561.593506 
	C1144.765015,1573.672974 1171.371460,1585.846191 1197.985596,1598.002563 
	C1210.110596,1603.540771 1222.182251,1609.196289 1234.324829,1614.695435 
	C1262.153564,1627.298584 1290.055786,1639.740479 1317.838867,1652.443237 
	C1332.733154,1659.253296 1347.487793,1665.546753 1364.635132,1663.143677 
	C1377.983398,1661.272827 1389.737549,1656.504517 1399.784668,1647.664795 
	C1410.548828,1638.194092 1416.875977,1626.226807 1420.447144,1612.305664 
	C1429.998901,1575.072510 1440.123291,1537.986572 1449.950928,1500.823853 
	C1458.991089,1466.638794 1467.946167,1432.431152 1476.929321,1398.231079 
	C1487.272583,1358.852783 1497.606567,1319.471802 1507.942871,1280.091553 
	C1518.608643,1239.456665 1529.285522,1198.824585 1539.932617,1158.184814 
	C1548.894165,1123.978516 1557.806396,1089.759033 1566.772217,1055.553833 
	C1568.927612,1047.330811 1570.989746,1038.852051 1568.657715,1030.599365 
	C1563.346924,1011.805115 1541.421631,1001.047424 1524.132202,1010.042175 
	C1512.448364,1016.120605 1500.967529,1022.605713 1489.550903,1029.178223 
	C1464.889526,1043.375610 1440.358276,1057.798950 1415.716553,1072.030518 
	C1393.045532,1085.124023 1370.264648,1098.027222 1347.595947,1111.124634 
	C1322.955444,1125.361450 1298.409912,1139.762939 1273.783447,1154.024292 
	C1249.009888,1168.370972 1224.187622,1182.633667 1198.650024,1197.059082 
M1393.931152,115.437500 
	C1392.751953,114.879898 1391.507568,114.428268 1390.403198,113.748924 
	C1370.944214,101.777428 1350.171265,99.454117 1328.769531,106.776581 
	C1297.015137,117.641106 1265.507446,129.227325 1233.913696,140.559586 
	C1197.317993,153.686035 1160.735229,166.848846 1124.163452,180.041824 
	C1112.570679,184.223785 1101.062622,188.641586 1089.461060,192.798447 
	C1050.080200,206.908707 1010.678223,220.960342 971.277466,235.015213 
	C943.025391,245.093170 914.684998,254.931900 886.571228,265.381195 
	C881.076477,267.423492 875.410278,270.876831 871.594238,275.231415 
	C856.981018,291.906982 859.094177,317.811829 878.494690,330.016327 
	C895.834167,340.924194 913.610352,351.138550 931.204041,361.641724 
	C948.513794,371.975433 965.804199,382.342194 983.161865,392.594940 
	C1004.019165,404.914856 1024.976196,417.066284 1045.820679,429.407837 
	C1066.668701,441.751495 1087.407104,454.280151 1108.238281,466.652466 
	C1126.828491,477.693848 1145.504883,488.589813 1164.096680,499.628479 
	C1182.265991,510.416260 1200.343018,521.359497 1218.521240,532.132202 
	C1239.646118,544.651062 1260.867554,557.007324 1281.990112,569.530212 
	C1300.165527,580.305786 1318.224731,591.277466 1336.401123,602.051392 
	C1357.524780,614.572449 1378.752563,626.918213 1399.875488,639.440369 
	C1420.716187,651.795166 1441.477661,664.283325 1462.282715,676.697998 
	C1479.594238,687.027893 1496.905640,697.358276 1514.242798,707.644958 
	C1523.889526,713.368713 1533.401245,719.359924 1543.314819,724.583496 
	C1554.230103,730.334900 1565.424072,729.397095 1575.150635,722.083252 
	C1585.461548,714.330017 1589.587402,703.513977 1585.972534,690.707642 
	C1581.391968,674.480652 1576.506714,658.337830 1571.607300,642.203003 
	C1562.986694,613.812988 1554.257080,585.456116 1545.570435,557.086182 
	C1537.928223,532.127319 1530.280884,507.170013 1522.638062,482.211304 
	C1513.950562,453.841248 1505.266724,425.470062 1496.579224,397.100006 
	C1488.936279,372.141632 1481.308105,347.178711 1473.641357,322.227631 
	C1463.451294,289.064941 1453.254028,255.904343 1443.013184,222.757278 
	C1437.077759,203.545425 1430.303589,184.555206 1425.272583,165.111832 
	C1420.125732,145.220917 1411.212769,128.280319 1393.931152,115.437500 
M501.501465,1370.001221 
	C496.756165,1366.254761 491.967621,1362.561646 487.273499,1358.752197 
	C472.782135,1346.991577 458.385254,1335.113892 443.842041,1323.417969 
	C427.663635,1310.406982 411.330322,1297.588867 395.129700,1284.605347 
	C382.612396,1274.573608 370.223938,1264.381104 357.726715,1254.324097 
	C344.606995,1243.766357 331.411987,1233.302246 318.276062,1222.764648 
	C307.679962,1214.264282 297.141266,1205.692505 286.543884,1197.193726 
	C273.535339,1186.761475 260.495483,1176.368286 247.463242,1165.965454 
	C236.603302,1157.296753 225.726776,1148.648682 214.872299,1139.973022 
	C204.138290,1131.393555 193.393784,1122.826904 182.706863,1114.189087 
	C171.627609,1105.234253 160.659424,1096.141479 149.555878,1087.217041 
	C136.816208,1076.977661 123.976349,1066.862915 111.189140,1056.682495 
	C102.874298,1050.062744 94.715881,1043.236084 86.221176,1036.856567 
	C80.489265,1032.552002 72.629997,1032.877197 68.170235,1037.414551 
	C62.209763,1043.478638 61.142231,1049.198242 65.087563,1056.024414 
	C79.404610,1080.795776 93.996124,1105.409180 108.565094,1130.034180 
	C119.654694,1148.778198 130.958069,1167.395996 142.002335,1186.166382 
	C157.169418,1211.943604 172.132599,1237.840698 187.275848,1263.632080 
	C198.796249,1283.253174 210.500046,1302.766602 222.051849,1322.369385 
	C236.824997,1347.438477 251.497070,1372.567139 266.270142,1397.636230 
	C277.821991,1417.239136 289.500153,1436.767334 301.052063,1456.370239 
	C315.825439,1481.439819 330.484711,1506.576660 345.275574,1531.635864 
	C357.093750,1551.658691 368.896484,1571.693481 380.997040,1591.545532 
	C385.217773,1598.469849 389.340088,1605.930542 395.215607,1611.264771 
	C405.557312,1620.653931 418.346252,1624.818237 432.683807,1624.088501 
	C446.885254,1623.365723 458.630951,1617.621216 467.922638,1607.338257 
	C473.900604,1600.722168 478.676849,1593.024048 484.034363,1585.842651 
	C499.148651,1565.582886 514.362366,1545.396729 529.379517,1525.065308 
	C536.822571,1514.988281 544.616028,1505.070435 551.006287,1494.339233 
	C560.062134,1479.132080 562.506165,1462.412109 560.131653,1444.716797 
	C557.678955,1426.439087 549.782593,1410.930054 536.717529,1398.562744 
	C525.948303,1388.368530 513.638000,1379.802368 501.501465,1370.001221 
M73.502090,703.998169 
	C69.400581,710.828369 65.285759,717.650574 61.202766,724.491821 
	C58.931244,728.297852 59.867157,736.488708 62.853497,739.334961 
	C66.131142,742.458801 74.611320,743.109680 78.085396,740.326355 
	C81.036659,737.961792 83.849190,735.415833 86.633347,732.852661 
	C95.755859,724.454041 104.846748,716.020996 113.932663,707.582825 
	C128.110352,694.415955 142.274109,681.234131 156.443573,668.058411 
	C166.012161,659.161011 175.578033,650.260620 185.149292,641.366028 
	C199.200912,628.307861 213.258820,615.256470 227.309326,602.197083 
	C241.603851,588.910828 255.890137,575.615723 270.184692,562.329529 
	C284.235168,549.270081 298.288940,536.214233 312.345947,523.161865 
	C326.280914,510.222687 340.229462,497.298187 354.157867,484.351990 
	C368.574219,470.952271 382.967316,457.527527 397.382385,444.126465 
	C406.585938,435.570221 415.822388,427.049438 425.023712,418.490875 
	C439.557129,404.972687 454.108856,391.473907 468.586121,377.895752 
	C481.032104,366.222717 493.374603,354.439392 505.783478,342.726654 
	C510.715881,338.070953 515.440613,333.146240 520.715393,328.911285 
	C537.183899,315.689423 548.078064,299.364044 551.124329,278.074280 
	C553.366699,262.402588 551.468994,247.544754 545.093811,233.011963 
	C539.518738,220.302948 529.439575,211.225464 520.569946,201.222717 
	C507.625854,186.625046 494.509277,172.127335 480.659576,158.400894 
	C467.392822,145.252213 451.258636,139.208176 432.074463,141.871155 
	C414.825775,144.265442 401.111664,151.855774 391.844696,166.634491 
	C384.851105,177.787735 378.459076,189.316895 371.726318,200.635330 
	C360.504944,219.499649 349.163208,238.292572 337.985840,257.182831 
	C324.489594,279.991943 311.157593,302.898254 297.668732,325.711792 
	C286.415985,344.743408 274.988220,363.671539 263.731720,382.700958 
	C251.314240,403.692963 239.066681,424.785553 226.628815,445.765411 
	C214.188705,466.749023 201.532669,487.604645 189.104599,508.595337 
	C176.847565,529.297119 164.816284,550.132507 152.577728,570.845398 
	C140.421997,591.417908 128.102127,611.893372 115.907700,632.443176 
	C101.885643,656.072815 87.922302,679.737244 73.502090,703.998169 
M785.662781,183.081482 
	C805.470276,178.033859 825.279053,172.991058 845.084961,167.937119 
	C862.215393,163.565872 879.358704,159.243408 896.467773,154.789993 
	C925.499084,147.233322 954.493896,139.536133 983.530457,132.000076 
	C1009.906921,125.154404 1036.333740,118.502388 1062.710815,111.659393 
	C1091.590698,104.167122 1120.438599,96.551033 1149.301758,88.994240 
	C1168.436890,83.984398 1187.600342,79.079460 1206.694946,73.919518 
	C1212.239380,72.421219 1213.949463,68.578926 1212.986450,61.722954 
	C1212.409790,57.616482 1208.820068,54.934139 1203.657227,55.017715 
	C1185.897705,55.305225 1168.140625,55.749149 1150.380493,55.981297 
	C1119.793579,56.381100 1089.205200,56.660263 1058.617554,57.001816 
	C1029.529175,57.326618 1000.441040,57.670864 971.352661,57.998489 
	C941.264771,58.337379 911.176819,58.664474 881.088867,59.000584 
	C851.500793,59.331112 821.913025,59.694492 792.324585,59.992573 
	C756.239441,60.356102 720.153809,60.676640 684.068237,60.991154 
	C677.071106,61.052139 670.070679,60.884945 663.075928,61.026077 
	C651.486389,61.259911 639.870850,61.249931 628.318970,62.077747 
	C607.812805,63.547237 594.644348,86.021667 600.822571,105.834442 
	C602.871338,112.404572 606.875732,117.185135 611.393005,122.009232 
	C625.791504,137.385818 638.697754,154.284790 655.691101,167.020187 
	C667.828003,176.115967 681.021484,183.660522 696.039856,186.959381 
	C705.872986,189.119247 715.857239,190.948288 725.870056,191.820450 
	C733.932312,192.522720 742.270020,192.403992 750.250366,191.151520 
	C761.932007,189.318176 773.403442,186.145584 785.662781,183.081482 
M1822.653564,963.834778 
	C1822.431885,958.770569 1822.989136,953.523621 1821.851196,948.674438 
	C1817.367798,929.568604 1801.478760,918.408997 1782.791748,919.215210 
	C1775.622925,919.524536 1768.440796,921.857910 1761.467773,923.946594 
	C1738.222412,930.909851 1718.944580,944.236938 1703.251343,962.477661 
	C1695.204102,971.831360 1688.127197,982.123108 1683.993530,993.977478 
	C1678.228516,1010.509338 1672.576904,1027.083374 1667.102783,1043.713623 
	C1658.026855,1071.286377 1649.134888,1098.919800 1640.158203,1126.525269 
	C1631.131714,1154.284546 1622.098755,1182.041870 1613.064819,1209.798584 
	C1604.081177,1237.401123 1595.085083,1264.999634 1586.108521,1292.604614 
	C1577.081909,1320.363770 1568.063721,1348.125732 1559.058960,1375.892212 
	C1549.853149,1404.278320 1540.705322,1432.683350 1531.464111,1461.057983 
	C1521.118896,1492.821899 1510.650024,1524.545532 1500.344238,1556.322144 
	C1497.998779,1563.554321 1495.934570,1570.889893 1494.075195,1578.262207 
	C1493.218262,1581.660034 1495.249878,1584.218018 1498.489746,1584.865601 
	C1501.594482,1585.486206 1504.605957,1584.937256 1506.320679,1581.377563 
	C1508.297607,1577.273682 1510.807251,1573.429932 1512.900879,1569.377808 
	C1523.821411,1548.242798 1534.684692,1527.078369 1545.564697,1505.922485 
	C1557.191528,1483.314331 1568.799927,1460.696533 1580.444336,1438.097412 
	C1591.492676,1416.655396 1602.592285,1395.239868 1613.641357,1373.798340 
	C1625.286865,1351.199585 1636.892334,1328.580200 1648.527832,1305.976318 
	C1659.491699,1284.676880 1670.484253,1263.391968 1681.440918,1242.088867 
	C1692.993774,1219.626709 1704.494995,1197.137939 1716.063843,1174.684204 
	C1726.812622,1153.822266 1737.643066,1133.002563 1748.396606,1112.143066 
	C1759.971069,1089.691162 1771.479248,1067.205200 1783.050537,1044.751709 
	C1794.174438,1023.166321 1805.455078,1001.660400 1816.404175,979.986938 
	C1818.864502,975.116455 1820.233276,969.694580 1822.653564,963.834778 
M1753.068848,662.394653 
	C1751.789795,660.131958 1750.461670,657.895447 1749.239258,655.602539 
	C1739.132568,636.645386 1729.076538,617.661133 1718.944580,598.717407 
	C1706.122925,574.744202 1693.219360,550.814697 1680.397827,526.841370 
	C1670.189209,507.753479 1660.087036,488.608643 1649.871582,469.524414 
	C1637.040527,445.553741 1624.116943,421.632660 1611.281128,397.664520 
	C1601.138550,378.725800 1591.097046,359.732880 1580.959229,340.791473 
	C1565.363892,311.652985 1549.705811,282.548065 1534.111206,253.409103 
	C1525.737915,237.763275 1517.301758,222.147980 1509.206177,206.358841 
	C1507.122681,202.295258 1503.595337,202.103653 1500.997070,203.424026 
	C1499.304443,204.284164 1498.053589,208.583023 1498.621826,210.831726 
	C1500.203491,217.091034 1502.790161,223.102188 1505.065186,229.179413 
	C1511.033569,245.121750 1517.087524,261.032013 1523.033081,276.982880 
	C1531.241943,299.005798 1539.351685,321.065674 1547.560303,343.088745 
	C1557.353516,369.363434 1567.238647,395.603821 1577.023438,421.881622 
	C1585.224976,443.907684 1593.310059,465.977081 1601.500366,488.007294 
	C1611.327759,514.440857 1621.226929,540.847778 1631.066895,567.276672 
	C1639.211426,589.151917 1647.291626,611.051147 1655.443359,632.923706 
	C1665.291992,659.349365 1674.984985,685.835632 1685.130371,712.147217 
	C1692.060547,730.120361 1699.109863,748.086365 1707.120972,765.591125 
	C1713.135254,778.732605 1723.180664,789.128052 1734.649902,797.862976 
	C1748.747925,808.599670 1764.365845,816.207581 1781.938232,819.514160 
	C1792.632935,821.526550 1801.988403,818.525696 1809.299194,810.975525 
	C1816.851074,803.176025 1819.862549,792.875000 1815.963501,782.800049 
	C1811.006226,769.990173 1804.290894,757.821350 1797.843018,745.635620 
	C1783.224976,718.009460 1768.306641,690.542114 1753.068848,662.394653 
z"/>
<path fill="#3699EA" opacity="1.000000" stroke="none" 
	d="
M1317.018066,731.001343 
	C1345.007812,747.598816 1372.590454,764.198730 1400.265259,780.643433 
	C1421.369263,793.183777 1442.622314,805.473267 1463.743286,817.985352 
	C1472.144043,822.961975 1480.712280,827.573303 1486.658691,835.970703 
	C1495.242676,848.093018 1496.955566,861.100891 1493.414429,875.106506 
	C1489.563232,890.338867 1478.327515,898.829834 1465.385132,906.003418 
	C1448.183838,915.537537 1431.240234,925.535889 1414.173950,935.314148 
	C1399.782959,943.559631 1385.353027,951.737610 1370.979736,960.013916 
	C1352.380981,970.723328 1333.839111,981.531311 1315.238770,992.237671 
	C1302.553833,999.539124 1289.784058,1006.693420 1277.099365,1013.995483 
	C1260.755981,1023.403687 1244.485718,1032.938965 1228.135132,1042.334839 
	C1215.446167,1049.626587 1202.647949,1056.728516 1189.960327,1064.022583 
	C1171.354126,1074.719360 1152.822266,1085.545898 1134.221924,1096.253052 
	C1121.537354,1103.554688 1108.761230,1110.697754 1096.077026,1118.000244 
	C1079.733154,1127.409546 1063.467651,1136.954834 1047.116577,1146.351440 
	C1034.427856,1153.643311 1021.623047,1160.733276 1008.935913,1168.027710 
	C990.329956,1178.725342 971.803772,1189.561646 953.203735,1200.269531 
	C940.519592,1207.571533 927.737122,1214.702637 915.053284,1222.005249 
	C898.709534,1231.415283 882.449402,1240.970703 866.098389,1250.367920 
	C853.410095,1257.660156 840.630554,1264.793457 827.905273,1272.021484 
	C820.551514,1276.198730 813.083069,1280.196533 805.913879,1284.671753 
	C787.127441,1296.398926 759.371887,1292.229858 745.642639,1272.482056 
	C739.421875,1263.534424 737.127869,1253.786743 737.097229,1243.480103 
	C736.905029,1178.825684 737.129578,1114.170288 736.965271,1049.515869 
	C736.784546,978.430359 736.335083,907.345520 735.999451,836.260437 
	C735.668457,766.175171 735.360718,696.089722 734.991211,626.004639 
	C734.701660,571.083008 734.589783,516.158386 733.867188,461.242065 
	C733.597778,440.770813 749.182617,423.169220 767.963989,418.938324 
	C782.127991,415.747559 794.245178,420.338623 806.020264,427.480682 
	C823.396362,438.019836 840.890747,448.364410 858.359436,458.750336 
	C876.241394,469.381958 894.159302,479.952881 912.049927,490.569916 
	C929.241577,500.772156 946.431152,510.978088 963.598694,521.220886 
	C987.751831,535.631592 1011.850220,550.134216 1036.034668,564.492065 
	C1057.146240,577.025513 1078.373291,589.364380 1099.495361,601.880249 
	C1117.670776,612.650146 1135.743774,623.592590 1153.910034,634.378052 
	C1172.498779,645.414368 1191.175659,656.302490 1209.759644,667.346741 
	C1232.260010,680.718384 1254.676758,694.230896 1277.182251,707.593933 
	C1289.343994,714.815247 1301.618652,721.846375 1313.831177,728.982544 
	C1314.815430,729.557739 1315.712646,730.282104 1317.018066,731.001343 
z"/>
<path fill="#3699EA" opacity="1.000000" stroke="none" 
	d="
M167.351608,997.739136 
	C157.497391,990.717834 147.997360,983.832153 138.392639,977.095703 
	C114.278786,960.183105 89.719856,943.870605 66.132973,926.254883 
	C53.162895,916.568237 46.830650,902.351562 45.932838,885.857727 
	C45.202103,872.433228 47.791512,859.849182 56.136532,849.346741 
	C61.545467,842.539368 68.348625,836.726074 75.045204,831.082214 
	C85.290833,822.447205 95.985100,814.344727 106.485977,806.012512 
	C119.160835,795.955444 131.854568,785.922119 144.499603,775.827637 
	C156.648819,766.129089 168.706360,756.315430 180.877502,746.644531 
	C193.027054,736.990723 205.311844,727.507080 217.455032,717.845337 
	C228.215851,709.283508 238.847488,700.559570 249.565659,691.943848 
	C261.552795,682.308167 273.548950,672.683289 285.585541,663.109497 
	C297.988586,653.244263 310.437866,643.436951 322.880035,633.620911 
	C336.732513,622.692322 350.639435,611.832214 364.447998,600.848511 
	C375.209839,592.288147 385.841644,583.564636 396.559875,574.949280 
	C408.547394,565.313599 420.547516,555.693359 432.578766,546.112366 
	C443.442810,537.460938 454.352112,528.866211 465.248932,520.255920 
	C477.684448,510.429810 490.161469,500.655853 502.559143,490.782166 
	C514.719055,481.097748 526.699097,471.184875 538.954529,461.624054 
	C547.128052,455.247620 554.512573,447.650208 564.904602,444.532440 
	C585.764282,438.274200 608.894043,452.585846 611.983398,473.328186 
	C612.513306,476.885834 612.951538,480.498596 612.956970,484.086609 
	C613.023010,527.577515 612.883606,571.068909 613.026184,614.559509 
	C613.263489,686.976318 613.662781,759.392517 614.001099,831.809021 
	C614.329346,902.059265 614.656738,972.309509 615.002869,1042.559692 
	C615.322632,1107.477661 615.671692,1172.395752 615.996948,1237.313721 
	C616.092346,1256.359985 598.325195,1273.445801 579.194031,1274.242310 
	C566.228516,1274.782104 556.110657,1269.562134 546.229736,1262.638794 
	C533.559631,1253.761108 521.002563,1244.722046 508.327576,1235.851440 
	C481.925354,1217.374023 455.484039,1198.952393 429.046783,1180.525024 
	C399.404816,1159.863892 369.736755,1139.240356 340.104431,1118.565430 
	C320.217377,1104.689941 300.353546,1090.780884 280.513824,1076.837891 
	C252.139252,1056.896729 223.817245,1036.880737 195.427612,1016.961121 
	C186.244156,1010.517517 176.918640,1004.276428 167.351608,997.739136 
z"/>
<path fill="#3699EA" opacity="1.000000" stroke="none" 
	d="
M1199.018311,1196.996216 
	C1224.187622,1182.633667 1249.009888,1168.370972 1273.783447,1154.024292 
	C1298.409912,1139.762939 1322.955444,1125.361450 1347.595947,1111.124634 
	C1370.264648,1098.027222 1393.045532,1085.124023 1415.716553,1072.030518 
	C1440.358276,1057.798950 1464.889526,1043.375610 1489.550903,1029.178223 
	C1500.967529,1022.605713 1512.448364,1016.120605 1524.132202,1010.042175 
	C1541.421631,1001.047424 1563.346924,1011.805115 1568.657715,1030.599365 
	C1570.989746,1038.852051 1568.927612,1047.330811 1566.772217,1055.553833 
	C1557.806396,1089.759033 1548.894165,1123.978516 1539.932617,1158.184814 
	C1529.285522,1198.824585 1518.608643,1239.456665 1507.942871,1280.091553 
	C1497.606567,1319.471802 1487.272583,1358.852783 1476.929321,1398.231079 
	C1467.946167,1432.431152 1458.991089,1466.638794 1449.950928,1500.823853 
	C1440.123291,1537.986572 1429.998901,1575.072510 1420.447144,1612.305664 
	C1416.875977,1626.226807 1410.548828,1638.194092 1399.784668,1647.664795 
	C1389.737549,1656.504517 1377.983398,1661.272827 1364.635132,1663.143677 
	C1347.487793,1665.546753 1332.733154,1659.253296 1317.838867,1652.443237 
	C1290.055786,1639.740479 1262.153564,1627.298584 1234.324829,1614.695435 
	C1222.182251,1609.196289 1210.110596,1603.540771 1197.985596,1598.002563 
	C1171.371460,1585.846191 1144.765015,1573.672974 1118.116089,1561.593506 
	C1090.885010,1549.249878 1063.598755,1537.028320 1036.353271,1524.716675 
	C1024.651123,1519.428589 1013.003967,1514.018433 1001.309204,1508.713623 
	C976.888916,1497.636597 952.438477,1486.625732 928.030518,1475.521729 
	C915.007751,1469.597290 901.948669,1463.737427 889.100220,1457.451294 
	C882.428162,1454.187012 875.510376,1450.861938 869.866943,1446.166138 
	C854.583008,1433.448853 853.327209,1410.882446 864.096985,1394.360718 
	C869.758972,1385.674683 878.966064,1381.885620 887.340820,1376.978760 
	C914.706116,1360.944824 942.120544,1344.994019 969.588928,1329.137329 
	C992.827454,1315.722046 1016.203857,1302.545898 1039.450928,1289.145386 
	C1059.452759,1277.615601 1079.320190,1265.853027 1099.317261,1254.315430 
	C1117.767334,1243.670288 1136.341919,1233.241333 1154.803101,1222.615479 
	C1169.464600,1214.176514 1184.037720,1205.583618 1199.018311,1196.996216 
z"/>
<path fill="#3699EA" opacity="1.000000" stroke="none" 
	d="
M1394.187744,115.700233 
	C1411.212769,128.280319 1420.125732,145.220917 1425.272583,165.111832 
	C1430.303589,184.555206 1437.077759,203.545425 1443.013184,222.757278 
	C1453.254028,255.904343 1463.451294,289.064941 1473.641357,322.227631 
	C1481.308105,347.178711 1488.936279,372.141632 1496.579224,397.100006 
	C1505.266724,425.470062 1513.950562,453.841248 1522.638062,482.211304 
	C1530.280884,507.170013 1537.928223,532.127319 1545.570435,557.086182 
	C1554.257080,585.456116 1562.986694,613.812988 1571.607300,642.203003 
	C1576.506714,658.337830 1581.391968,674.480652 1585.972534,690.707642 
	C1589.587402,703.513977 1585.461548,714.330017 1575.150635,722.083252 
	C1565.424072,729.397095 1554.230103,730.334900 1543.314819,724.583496 
	C1533.401245,719.359924 1523.889526,713.368713 1514.242798,707.644958 
	C1496.905640,697.358276 1479.594238,687.027893 1462.282715,676.697998 
	C1441.477661,664.283325 1420.716187,651.795166 1399.875488,639.440369 
	C1378.752563,626.918213 1357.524780,614.572449 1336.401123,602.051392 
	C1318.224731,591.277466 1300.165527,580.305786 1281.990112,569.530212 
	C1260.867554,557.007324 1239.646118,544.651062 1218.521240,532.132202 
	C1200.343018,521.359497 1182.265991,510.416260 1164.096680,499.628479 
	C1145.504883,488.589813 1126.828491,477.693848 1108.238281,466.652466 
	C1087.407104,454.280151 1066.668701,441.751495 1045.820679,429.407837 
	C1024.976196,417.066284 1004.019165,404.914856 983.161865,392.594940 
	C965.804199,382.342194 948.513794,371.975433 931.204041,361.641724 
	C913.610352,351.138550 895.834167,340.924194 878.494690,330.016327 
	C859.094177,317.811829 856.981018,291.906982 871.594238,275.231415 
	C875.410278,270.876831 881.076477,267.423492 886.571228,265.381195 
	C914.684998,254.931900 943.025391,245.093170 971.277466,235.015213 
	C1010.678223,220.960342 1050.080200,206.908707 1089.461060,192.798447 
	C1101.062622,188.641586 1112.570679,184.223785 1124.163452,180.041824 
	C1160.735229,166.848846 1197.317993,153.686035 1233.913696,140.559586 
	C1265.507446,129.227325 1297.015137,117.641106 1328.769531,106.776581 
	C1350.171265,99.454117 1370.944214,101.777428 1390.403198,113.748924 
	C1391.507568,114.428268 1392.751953,114.879898 1394.187744,115.700233 
z"/>
<path fill="#3699EA" opacity="1.000000" stroke="none" 
	d="
M501.756042,1370.258057 
	C513.638000,1379.802368 525.948303,1388.368530 536.717529,1398.562744 
	C549.782593,1410.930054 557.678955,1426.439087 560.131653,1444.716797 
	C562.506165,1462.412109 560.062134,1479.132080 551.006287,1494.339233 
	C544.616028,1505.070435 536.822571,1514.988281 529.379517,1525.065308 
	C514.362366,1545.396729 499.148651,1565.582886 484.034363,1585.842651 
	C478.676849,1593.024048 473.900604,1600.722168 467.922638,1607.338257 
	C458.630951,1617.621216 446.885254,1623.365723 432.683807,1624.088501 
	C418.346252,1624.818237 405.557312,1620.653931 395.215607,1611.264771 
	C389.340088,1605.930542 385.217773,1598.469849 380.997040,1591.545532 
	C368.896484,1571.693481 357.093750,1551.658691 345.275574,1531.635864 
	C330.484711,1506.576660 315.825439,1481.439819 301.052063,1456.370239 
	C289.500153,1436.767334 277.821991,1417.239136 266.270142,1397.636230 
	C251.497070,1372.567139 236.824997,1347.438477 222.051849,1322.369385 
	C210.500046,1302.766602 198.796249,1283.253174 187.275848,1263.632080 
	C172.132599,1237.840698 157.169418,1211.943604 142.002335,1186.166382 
	C130.958069,1167.395996 119.654694,1148.778198 108.565094,1130.034180 
	C93.996124,1105.409180 79.404610,1080.795776 65.087563,1056.024414 
	C61.142231,1049.198242 62.209763,1043.478638 68.170235,1037.414551 
	C72.629997,1032.877197 80.489265,1032.552002 86.221176,1036.856567 
	C94.715881,1043.236084 102.874298,1050.062744 111.189140,1056.682495 
	C123.976349,1066.862915 136.816208,1076.977661 149.555878,1087.217041 
	C160.659424,1096.141479 171.627609,1105.234253 182.706863,1114.189087 
	C193.393784,1122.826904 204.138290,1131.393555 214.872299,1139.973022 
	C225.726776,1148.648682 236.603302,1157.296753 247.463242,1165.965454 
	C260.495483,1176.368286 273.535339,1186.761475 286.543884,1197.193726 
	C297.141266,1205.692505 307.679962,1214.264282 318.276062,1222.764648 
	C331.411987,1233.302246 344.606995,1243.766357 357.726715,1254.324097 
	C370.223938,1264.381104 382.612396,1274.573608 395.129700,1284.605347 
	C411.330322,1297.588867 427.663635,1310.406982 443.842041,1323.417969 
	C458.385254,1335.113892 472.782135,1346.991577 487.273499,1358.752197 
	C491.967621,1362.561646 496.756165,1366.254761 501.756042,1370.258057 
z"/>
<path fill="#3699EA" opacity="1.000000" stroke="none" 
	d="
M73.717773,703.692383 
	C87.922302,679.737244 101.885643,656.072815 115.907700,632.443176 
	C128.102127,611.893372 140.421997,591.417908 152.577728,570.845398 
	C164.816284,550.132507 176.847565,529.297119 189.104599,508.595337 
	C201.532669,487.604645 214.188705,466.749023 226.628815,445.765411 
	C239.066681,424.785553 251.314240,403.692963 263.731720,382.700958 
	C274.988220,363.671539 286.415985,344.743408 297.668732,325.711792 
	C311.157593,302.898254 324.489594,279.991943 337.985840,257.182831 
	C349.163208,238.292572 360.504944,219.499649 371.726318,200.635330 
	C378.459076,189.316895 384.851105,177.787735 391.844696,166.634491 
	C401.111664,151.855774 414.825775,144.265442 432.074463,141.871155 
	C451.258636,139.208176 467.392822,145.252213 480.659576,158.400894 
	C494.509277,172.127335 507.625854,186.625046 520.569946,201.222717 
	C529.439575,211.225464 539.518738,220.302948 545.093811,233.011963 
	C551.468994,247.544754 553.366699,262.402588 551.124329,278.074280 
	C548.078064,299.364044 537.183899,315.689423 520.715393,328.911285 
	C515.440613,333.146240 510.715881,338.070953 505.783478,342.726654 
	C493.374603,354.439392 481.032104,366.222717 468.586121,377.895752 
	C454.108856,391.473907 439.557129,404.972687 425.023712,418.490875 
	C415.822388,427.049438 406.585938,435.570221 397.382385,444.126465 
	C382.967316,457.527527 368.574219,470.952271 354.157867,484.351990 
	C340.229462,497.298187 326.280914,510.222687 312.345947,523.161865 
	C298.288940,536.214233 284.235168,549.270081 270.184692,562.329529 
	C255.890137,575.615723 241.603851,588.910828 227.309326,602.197083 
	C213.258820,615.256470 199.200912,628.307861 185.149292,641.366028 
	C175.578033,650.260620 166.012161,659.161011 156.443573,668.058411 
	C142.274109,681.234131 128.110352,694.415955 113.932663,707.582825 
	C104.846748,716.020996 95.755859,724.454041 86.633347,732.852661 
	C83.849190,735.415833 81.036659,737.961792 78.085396,740.326355 
	C74.611320,743.109680 66.131142,742.458801 62.853497,739.334961 
	C59.867157,736.488708 58.931244,728.297852 61.202766,724.491821 
	C65.285759,717.650574 69.400581,710.828369 73.717773,703.692383 
z"/>
<path fill="#3699EA" opacity="1.000000" stroke="none" 
	d="
M577.988403,1674.166504 
	C578.315430,1673.645020 578.981079,1673.079468 578.919678,1672.608521 
	C577.546936,1662.070679 583.710938,1654.668823 589.429626,1647.066162 
	C605.308105,1625.956543 621.028809,1604.726074 637.103821,1583.767334 
	C645.870544,1572.337158 654.383850,1560.514893 664.524109,1550.383301 
	C678.973328,1535.946289 696.861877,1527.536011 717.296753,1523.781372 
	C740.178955,1519.577393 761.299805,1524.445679 782.289307,1532.635376 
	C801.014893,1539.941650 819.885986,1546.876099 838.712769,1553.921387 
	C865.125366,1563.805420 891.555908,1573.641357 917.979492,1583.495972 
	C938.940186,1591.313110 959.905640,1599.117310 980.862305,1606.945190 
	C1007.281433,1616.813354 1033.681396,1626.733276 1060.113037,1636.567871 
	C1080.621948,1644.198730 1101.188965,1651.674438 1121.690186,1659.326050 
	C1145.836304,1668.338013 1169.942383,1677.457397 1194.059937,1686.545898 
	C1212.863770,1693.631958 1231.713379,1700.601807 1250.424927,1707.923950 
	C1256.315552,1710.229126 1259.185303,1716.555786 1257.890015,1722.201782 
	C1256.357544,1728.880493 1251.899170,1733.075317 1245.164062,1732.916992 
	C1227.134766,1732.492920 1209.117798,1731.556274 1191.089600,1731.056763 
	C1181.433350,1730.789185 1171.761841,1731.122925 1162.100586,1730.971924 
	C1147.671997,1730.746460 1133.245728,1730.354492 1118.819580,1729.992065 
	C1106.891235,1729.692261 1094.964600,1729.313477 1083.036377,1729.005005 
	C1069.277100,1728.649292 1055.515991,1728.355103 1041.756958,1727.991333 
	C1030.494751,1727.693481 1019.235229,1727.297729 1007.972839,1727.008667 
	C993.546936,1726.638550 979.118469,1726.366211 964.692810,1725.986938 
	C954.263611,1725.712769 943.838562,1725.281860 933.409241,1725.012085 
	C918.650391,1724.630371 903.888977,1724.349976 889.129456,1723.993896 
	C876.368103,1723.686035 863.607971,1723.331421 850.847168,1723.000244 
	C837.919861,1722.664795 824.992371,1722.335938 812.065063,1721.998291 
	C799.470947,1721.669312 786.877014,1721.328003 774.282776,1721.001343 
	C761.189453,1720.661621 748.095642,1720.342285 735.002441,1719.996094 
	C722.907837,1719.676392 710.814270,1719.317383 698.719421,1719.004272 
	C685.126099,1718.652344 671.531555,1718.346436 657.938232,1717.994629 
	C645.843384,1717.681519 633.745239,1717.442993 621.656494,1716.968384 
	C610.097229,1716.514526 598.761292,1714.829468 589.980225,1706.358765 
	C583.915100,1700.508057 579.608276,1693.392578 578.042664,1684.939331 
	C577.481323,1681.908203 577.351685,1678.797241 577.244751,1675.228027 
	C577.656128,1674.560059 577.830750,1674.371094 577.988403,1674.166504 
z"/>
<path fill="#3699EA" opacity="1.000000" stroke="none" 
	d="
M785.313599,183.312622 
	C773.403442,186.145584 761.932007,189.318176 750.250366,191.151520 
	C742.270020,192.403992 733.932312,192.522720 725.870056,191.820450 
	C715.857239,190.948288 705.872986,189.119247 696.039856,186.959381 
	C681.021484,183.660522 667.828003,176.115967 655.691101,167.020187 
	C638.697754,154.284790 625.791504,137.385818 611.393005,122.009232 
	C606.875732,117.185135 602.871338,112.404572 600.822571,105.834442 
	C594.644348,86.021667 607.812805,63.547237 628.318970,62.077747 
	C639.870850,61.249931 651.486389,61.259911 663.075928,61.026077 
	C670.070679,60.884945 677.071106,61.052139 684.068237,60.991154 
	C720.153809,60.676640 756.239441,60.356102 792.324585,59.992573 
	C821.913025,59.694492 851.500793,59.331112 881.088867,59.000584 
	C911.176819,58.664474 941.264771,58.337379 971.352661,57.998489 
	C1000.441040,57.670864 1029.529175,57.326618 1058.617554,57.001816 
	C1089.205200,56.660263 1119.793579,56.381100 1150.380493,55.981297 
	C1168.140625,55.749149 1185.897705,55.305225 1203.657227,55.017715 
	C1208.820068,54.934139 1212.409790,57.616482 1212.986450,61.722954 
	C1213.949463,68.578926 1212.239380,72.421219 1206.694946,73.919518 
	C1187.600342,79.079460 1168.436890,83.984398 1149.301758,88.994240 
	C1120.438599,96.551033 1091.590698,104.167122 1062.710815,111.659393 
	C1036.333740,118.502388 1009.906921,125.154404 983.530457,132.000076 
	C954.493896,139.536133 925.499084,147.233322 896.467773,154.789993 
	C879.358704,159.243408 862.215393,163.565872 845.084961,167.937119 
	C825.279053,172.991058 805.470276,178.033859 785.313599,183.312622 
z"/>
<path fill="#3699EA" opacity="1.000000" stroke="none" 
	d="
M1822.379150,964.180664 
	C1820.233276,969.694580 1818.864502,975.116455 1816.404175,979.986938 
	C1805.455078,1001.660400 1794.174438,1023.166321 1783.050537,1044.751709 
	C1771.479248,1067.205200 1759.971069,1089.691162 1748.396606,1112.143066 
	C1737.643066,1133.002563 1726.812622,1153.822266 1716.063843,1174.684204 
	C1704.494995,1197.137939 1692.993774,1219.626709 1681.440918,1242.088867 
	C1670.484253,1263.391968 1659.491699,1284.676880 1648.527832,1305.976318 
	C1636.892334,1328.580200 1625.286865,1351.199585 1613.641357,1373.798340 
	C1602.592285,1395.239868 1591.492676,1416.655396 1580.444336,1438.097412 
	C1568.799927,1460.696533 1557.191528,1483.314331 1545.564697,1505.922485 
	C1534.684692,1527.078369 1523.821411,1548.242798 1512.900879,1569.377808 
	C1510.807251,1573.429932 1508.297607,1577.273682 1506.320679,1581.377563 
	C1504.605957,1584.937256 1501.594482,1585.486206 1498.489746,1584.865601 
	C1495.249878,1584.218018 1493.218262,1581.660034 1494.075195,1578.262207 
	C1495.934570,1570.889893 1497.998779,1563.554321 1500.344238,1556.322144 
	C1510.650024,1524.545532 1521.118896,1492.821899 1531.464111,1461.057983 
	C1540.705322,1432.683350 1549.853149,1404.278320 1559.058960,1375.892212 
	C1568.063721,1348.125732 1577.081909,1320.363770 1586.108521,1292.604614 
	C1595.085083,1264.999634 1604.081177,1237.401123 1613.064819,1209.798584 
	C1622.098755,1182.041870 1631.131714,1154.284546 1640.158203,1126.525269 
	C1649.134888,1098.919800 1658.026855,1071.286377 1667.102783,1043.713623 
	C1672.576904,1027.083374 1678.228516,1010.509338 1683.993530,993.977478 
	C1688.127197,982.123108 1695.204102,971.831360 1703.251343,962.477661 
	C1718.944580,944.236938 1738.222412,930.909851 1761.467773,923.946594 
	C1768.440796,921.857910 1775.622925,919.524536 1782.791748,919.215210 
	C1801.478760,918.408997 1817.367798,929.568604 1821.851196,948.674438 
	C1822.989136,953.523621 1822.431885,958.770569 1822.379150,964.180664 
z"/>
<path fill="#3699EA" opacity="1.000000" stroke="none" 
	d="
M1753.289551,662.702393 
	C1768.306641,690.542114 1783.224976,718.009460 1797.843018,745.635620 
	C1804.290894,757.821350 1811.006226,769.990173 1815.963501,782.800049 
	C1819.862549,792.875000 1816.851074,803.176025 1809.299194,810.975525 
	C1801.988403,818.525696 1792.632935,821.526550 1781.938232,819.514160 
	C1764.365845,816.207581 1748.747925,808.599670 1734.649902,797.862976 
	C1723.180664,789.128052 1713.135254,778.732605 1707.120972,765.591125 
	C1699.109863,748.086365 1692.060547,730.120361 1685.130371,712.147217 
	C1674.984985,685.835632 1665.291992,659.349365 1655.443359,632.923706 
	C1647.291626,611.051147 1639.211426,589.151917 1631.066895,567.276672 
	C1621.226929,540.847778 1611.327759,514.440857 1601.500366,488.007294 
	C1593.310059,465.977081 1585.224976,443.907684 1577.023438,421.881622 
	C1567.238647,395.603821 1557.353516,369.363434 1547.560303,343.088745 
	C1539.351685,321.065674 1531.241943,299.005798 1523.033081,276.982880 
	C1517.087524,261.032013 1511.033569,245.121750 1505.065186,229.179413 
	C1502.790161,223.102188 1500.203491,217.091034 1498.621826,210.831726 
	C1498.053589,208.583023 1499.304443,204.284164 1500.997070,203.424026 
	C1503.595337,202.103653 1507.122681,202.295258 1509.206177,206.358841 
	C1517.301758,222.147980 1525.737915,237.763275 1534.111206,253.409103 
	C1549.705811,282.548065 1565.363892,311.652985 1580.959229,340.791473 
	C1591.097046,359.732880 1601.138550,378.725800 1611.281128,397.664520 
	C1624.116943,421.632660 1637.040527,445.553741 1649.871582,469.524414 
	C1660.087036,488.608643 1670.189209,507.753479 1680.397827,526.841370 
	C1693.219360,550.814697 1706.122925,574.744202 1718.944580,598.717407 
	C1729.076538,617.661133 1739.132568,636.645386 1749.239258,655.602539 
	C1750.461670,657.895447 1751.789795,660.131958 1753.289551,662.702393 
z"/>
<path fill="#3699EA" opacity="1.000000" stroke="none" 
	d="
M577.732544,1674.135254 
	C577.830750,1674.371094 577.656128,1674.560059 577.315552,1674.856201 
	C577.269958,1674.687500 577.373291,1674.395752 577.732544,1674.135254 
z"/>
</svg>